PathFileType	4	(X/Y/Z)	Patient4_TMGait_0pt5_02_left_24.trc.trc
DataRate	CameraRate	NumFrames	NumMarkers	Units	OrigDataRate	OrigDataStartFrame	OrigNumFrames
78.212290502793	78.212290502793	5	33	mm	78.212290502793	18	       141
Frame#	Time	Sacral			L.Shoulder			Chest			R.Shoulder			Neck			R.ASIS			L.ASIS			R.Thigh.Superior			R.Thigh.Lateral			R.Thigh.Inferior			R.Patella			L.Thigh.Superior			L.Thigh.Lateral			L.Thigh.Inferior			L.Patella			L.Shank.Superior			L.Shank.Lateral			L.Shank.Inferior			R.Shank.Superior			R.Shank.Lateral			R.Shank.Inferior			R.Heel			R.Midfoot.Superior			R.Midfoot.Lateral			R.Toe			L.Heel			L.Midfoot.Lateral			L.Midfoot.Superior			L.Toe			L.Elbow			L.Wrist			R.Elbow			R.Wrist			
		X1	Y1	Z1	X2	Y2	Z2	X3	Y3	Z3	X4	Y4	Z4	X5	Y5	Z5	X6	Y6	Z6	X7	Y7	Z7	X8	Y8	Z8	X9	Y9	Z9	X10	Y10	Z10	X11	Y11	Z11	X12	Y12	Z12	X13	Y13	Z13	X14	Y14	Z14	X15	Y15	Z15	X16	Y16	Z16	X17	Y17	Z17	X18	Y18	Z18	X19	Y19	Z19	X20	Y20	Z20	X21	Y21	Z21	X22	Y22	Z22	X23	Y23	Z23	X24	Y24	Z24	X25	Y25	Z25	X26	Y26	Z26	X27	Y27	Z27	X28	Y28	Z28	X29	Y29	Z29	X30	Y30	Z30	X31	Y31	Z31	X32	Y32	Z32	X33	Y33	Z33	

18	30.807357142857	486.507252401140	1014.523718213848	522.194799691884	679.576048560020	1433.200240784487	335.250510702024	789.923109564255	1351.934498897629	485.109512049356	727.940868694753	1430.363773726795	667.057867846400	695.778837873411	1489.431688973283	487.895615433103	715.308390360876	933.782515584293	624.194811241788	686.719208664885	955.393617785557	350.654936183459	724.659348400778	726.002968087300	592.361616320580	631.417253273831	628.183495515003	654.786278309533	694.964913368355	566.948845017700	570.672163219378	681.904502720390	481.246314589777	574.454300167593	754.117013418754	772.558007791019	379.912808877130	708.072053910515	649.078328479216	297.524761273848	805.843122039739	585.361592993208	363.668925156549	833.181459283787	519.307496519451	357.148624491837	814.837096332337	448.655046316091	345.317115316331	746.560712526420	320.926846458574	291.582558399357	830.287874019555	219.414522972866	347.117458941451	647.349775317853	395.218777870878	581.193643202484	568.261553431342	297.322099642884	642.097716156807	599.160655596625	200.987330294110	576.928866114447	450.712906113511	42.304249766947	546.396832898107	622.863996742700	96.055110663173	582.128750528879	533.832152717843	35.971499219554	621.359652189397	742.405754087238	40.745945209905	611.581961882923	743.926315726550	36.914476963433	381.440818181423	818.129450242903	45.728134004666	302.098115426688	887.010401595268	124.826870831334	324.666490079347	1021.486923054079	99.933881175433	298.524011562173	542.175269855606	1105.960667000518	228.421610702698	513.623034381533	846.629951097213	226.707075109940	821.710693725780	1110.694486902272	795.585662805470	1068.905764643206	1107.297885127232	736.556924306022	
19	30.820142857143	487.033871696300	1013.423443173178	521.288851106535	678.288306549659	1432.303109129418	333.172328213587	789.273139551882	1351.606996200214	482.824221000874	727.544545423272	1430.218289480086	664.784420191928	694.858500153063	1488.769162005420	485.652975789353	716.004528760329	933.357063508418	623.066154617413	686.927078360380	954.303354816488	349.356854622413	724.164544759898	725.020923553112	591.135928799701	630.456796602642	627.522954340967	653.948567680205	693.123366803314	565.879570788037	569.744936089979	679.307418263964	480.037835699308	573.539592002603	754.437711113713	771.377073093615	378.717374874229	706.572586165174	647.320267547480	297.592726396345	804.933868780427	583.862527886057	362.655501253337	832.041400338321	518.336822173715	356.824976844865	814.631865257149	447.734317977072	345.216427740201	747.665566077933	318.823232701974	292.831164769433	833.383068906574	218.763411519336	347.999390160140	643.927787620053	394.211713615376	580.436090457622	564.215844065336	297.056292830227	641.719410738826	593.851012831446	200.423624416170	576.547506067350	444.245250625363	42.304441334730	546.433513208782	616.358488796975	95.979940016760	582.001736526056	527.367207067171	35.911052099067	621.319967231424	735.913758553957	40.801923477979	611.550413086025	749.263399709707	36.283043375710	383.746358476916	822.995512828596	44.869682920064	303.978787357528	891.840428862119	123.982153235099	325.877032693362	1026.155567840869	99.084306296142	299.172830476579	538.816495108634	1105.886341439930	227.602372290556	508.450197365781	846.750731352160	226.668602597387	824.708198775384	1111.117357322367	791.474284779395	1070.833925683205	1115.593151536841	729.581490069526	
20	30.832928571429	487.870062160181	1012.282322964868	520.241148158688	677.052811459516	1431.358369193022	330.884224143231	788.688012674828	1351.365646606607	480.383240976287	727.133577141951	1430.192324471537	662.305445335716	693.910985459253	1488.132682015120	483.163921015467	716.957071457667	932.922407968347	621.851199732156	687.484393771780	953.258298209303	347.993938594742	723.957005455550	723.993482038784	589.944256581493	629.613976026331	626.859448482856	653.036226321266	691.478200988006	564.767935793683	568.849077845928	676.849183686396	478.788995054346	572.582102490922	755.192998414060	770.203051428730	377.296281729678	705.130502708875	645.470585404522	297.767671422117	804.251551064632	582.370453199898	361.518815248062	830.919844153887	517.139151423110	356.453093569443	814.148661279984	446.422847225917	345.116902037975	747.764926375404	316.731113423462	294.166904005014	834.897365874178	217.688347447412	348.940321914363	640.626508635063	393.201974807027	579.645112545066	560.249074061439	296.839688334067	641.309357881423	588.604486200303	199.879063615124	576.168388231823	437.803440889718	42.329341782358	546.471811590725	609.893190628551	95.897351206774	581.880418264871	520.924087372327	35.840977821433	621.261114450856	729.438729292971	40.806819022662	611.535319718639	751.868598481722	35.988753946302	386.070222227191	825.158433975779	43.896369821860	305.858218857398	894.567063358947	122.386431786981	327.212109524440	1028.487098117045	96.442301832954	299.886546867716	535.951327781743	1105.530995983121	226.706209446052	504.259692192988	846.548412429327	226.438765495441	827.052571096372	1111.484722737335	787.266491699063	1071.854650729061	1123.130341095356	722.501659680837	
21	30.845714285714	488.993265905838	1011.081752291743	519.050898566123	675.876042085838	1430.336379440023	328.405994755841	788.178060370342	1351.177786448974	477.805599487887	726.705522467617	1430.232221631434	659.646887966714	692.937682640990	1487.489259767184	480.455009225170	718.155891760828	932.442641455399	620.539660877261	688.387663416696	952.226301634550	346.568942802648	724.000242588112	722.890764959305	588.789304623649	628.840666258617	626.177141048844	652.056137873686	689.975065033577	563.593848306989	567.978625342485	674.478066067199	477.484225870106	571.576598714373	756.326300440720	768.979814184713	375.679842431264	703.833078034961	643.558820441891	297.967901569048	803.817628476614	580.883732325769	360.291070888116	829.822934115852	515.702496431414	356.052281498670	813.449658171543	444.746923993653	345.001097894101	747.033826061565	314.634885939732	295.449390031165	835.012483590740	216.186976829278	349.877697627554	637.403206638975	392.177233956812	578.817188514130	556.323514412573	296.651718488527	640.863260428963	583.395246728091	199.340586277307	575.783813792506	431.381574508737	42.365016719923	546.508917315054	603.453862106328	95.804345680846	581.757917257640	514.496817466877	35.760950752637	621.188244787990	722.976588112810	40.761283574805	611.536882289652	751.986883447385	35.917608715240	388.229284706322	824.931284311437	42.768919330769	307.617976255216	895.409357483655	120.081015727564	328.629904134871	1028.765840127364	92.183520866953	300.750082563241	533.596923401971	1104.853562273868	225.709611341099	501.064945432631	845.980717544389	225.996660195701	828.786099287688	1111.737231523942	783.033387250344	1072.072718608957	1129.820510903508	715.372558338890	
22	30.858500000000	490.359581333130	1009.817142404403	517.720063314854	674.764030294900	1429.217462178884	325.759647182117	787.753040405985	1351.015632480961	475.110118604215	726.263930499041	1430.293291831878	656.836153039849	691.950171012095	1486.815673606024	477.553344512910	719.575748435971	931.891198415233	619.124256019261	689.613746266847	951.187930887526	345.086647687020	724.256880168326	721.699326192118	587.658505817666	628.118328280358	625.464239335857	651.009888943127	688.585091080359	562.351062463559	567.111088333395	672.181089876801	476.110894663799	570.515805565452	757.780478835965	767.677843799163	373.918021480697	702.791328278831	641.645442444650	298.101040605539	803.666550959097	579.417508873653	359.003666288222	828.778394591868	514.043655391455	355.632086079658	812.617884243131	442.773514765895	344.841237860922	745.683824009804	312.558187933016	296.538915543847	833.960963470120	214.318119334338	350.743922452974	634.243332247921	391.129049452369	577.944604836700	552.424492290489	296.480280636536	640.375880272616	578.210670821573	198.802714519333	575.384744489506	424.975764169350	42.417331702179	546.542754615864	597.031968055253	95.704133258958	581.629754554480	508.082388734692	35.681953939273	621.106751937334	716.525143880730	40.664479447740	611.555077506397	749.969504084298	35.985872780076	390.081736833528	822.701079447507	41.500769024808	309.155820410164	894.626813951888	117.198464817907	330.063292911651	1027.312989398976	86.643688232214	301.780170472133	531.778274916510	1103.820561537140	224.594578855541	498.873700933525	845.013961295069	225.326386658302	829.956221825295	1111.826591098333	778.843233523867	1071.599271568310	1135.576893806037	708.248794282823	
